<svg viewBox="0 0 120 120" height = "1.25em" xmlns="http://www.w3.org/2000/svg" xmlns:xlink="http://www.w3.org/1999/xlink">
<style type="text/css">
	.st0{fill:#FFFFFF;stroke:#372E28;stroke-width:9;stroke-linecap:round;stroke-linejoin:round;stroke-miterlimit:10;}
</style>
<g>
	<path class="st0" d="M72.555,49.905L29.337,69.498c-10.533,4.775-22.48-2.926-22.48-14.491V28.759
		c0-8.787,7.123-15.911,15.911-15.911h43.218c8.787,0,15.911,7.123,15.911,15.911v6.654C81.896,41.659,78.243,47.326,72.555,49.905z
		"/>
	<path class="st0" d="M113.143,51.816v35.631c0,10.882-8.822,19.704-19.704,19.704H26.561c-10.882,0-19.704-8.822-19.704-19.704
		V51.816c0-10.882,8.822-19.704,19.704-19.704h66.878C104.321,32.112,113.143,40.934,113.143,51.816z"/>
</g>
</svg>
